<mxfile host="Electron" agent="Mozilla/5.0 (Windows NT 10.0; Win64; x64) AppleWebKit/537.36 (KHTML, like Gecko) draw.io/28.0.6 Chrome/138.0.7204.100 Electron/37.2.3 Safari/537.36" version="28.0.6">
  <diagram name="Page-1" id="EtCbw0U6_Ll5fg_xHTvh">
    <mxGraphModel dx="1426" dy="923" grid="1" gridSize="10" guides="1" tooltips="1" connect="1" arrows="1" fold="1" page="1" pageScale="1" pageWidth="827" pageHeight="1169" math="0" shadow="0">
      <root>
        <mxCell id="0" />
        <mxCell id="1" parent="0" />
        <mxCell id="AOtf8fqtg7djKopkWsp2-1" value="" style="rounded=0;whiteSpace=wrap;html=1;fillColor=#008a00;fontColor=#ffffff;strokeColor=#005700;" parent="1" vertex="1">
          <mxGeometry x="120" y="60" width="540" height="640" as="geometry" />
        </mxCell>
        <mxCell id="AOtf8fqtg7djKopkWsp2-2" value="" style="rounded=0;whiteSpace=wrap;html=1;fillColor=#0050ef;fontColor=#ffffff;strokeColor=#001DBC;" parent="1" vertex="1">
          <mxGeometry x="360" y="630" width="60" height="60" as="geometry" />
        </mxCell>
        <mxCell id="AOtf8fqtg7djKopkWsp2-3" value="" style="rounded=0;whiteSpace=wrap;html=1;strokeColor=#000000;" parent="1" vertex="1">
          <mxGeometry x="120" y="420" width="540" height="60" as="geometry" />
        </mxCell>
        <mxCell id="AOtf8fqtg7djKopkWsp2-4" value="" style="rounded=0;whiteSpace=wrap;html=1;strokeColor=#000000;" parent="1" vertex="1">
          <mxGeometry x="120" y="220" width="540" height="60" as="geometry" />
        </mxCell>
        <mxCell id="AOtf8fqtg7djKopkWsp2-5" value="" style="rounded=0;whiteSpace=wrap;html=1;strokeColor=#000000;" parent="1" vertex="1">
          <mxGeometry x="120" y="152" width="540" height="60" as="geometry" />
        </mxCell>
        <mxCell id="AOtf8fqtg7djKopkWsp2-17" value="" style="rounded=0;whiteSpace=wrap;html=1;fillColor=#a20025;fontColor=#ffffff;strokeColor=#6F0000;" parent="1" vertex="1">
          <mxGeometry x="140" y="225" width="50" height="50" as="geometry" />
        </mxCell>
        <mxCell id="AOtf8fqtg7djKopkWsp2-18" value="" style="rounded=0;whiteSpace=wrap;html=1;fillColor=#a20025;fontColor=#ffffff;strokeColor=#6F0000;" parent="1" vertex="1">
          <mxGeometry x="389" y="157" width="50" height="50" as="geometry" />
        </mxCell>
        <mxCell id="AOtf8fqtg7djKopkWsp2-19" value="" style="rounded=0;whiteSpace=wrap;html=1;fillColor=#a20025;fontColor=#ffffff;strokeColor=#6F0000;" parent="1" vertex="1">
          <mxGeometry x="520" y="225" width="50" height="50" as="geometry" />
        </mxCell>
        <mxCell id="AOtf8fqtg7djKopkWsp2-20" value="" style="rounded=0;whiteSpace=wrap;html=1;fillColor=#a20025;fontColor=#ffffff;strokeColor=#6F0000;" parent="1" vertex="1">
          <mxGeometry x="405" y="426" width="50" height="50" as="geometry" />
        </mxCell>
        <mxCell id="AOtf8fqtg7djKopkWsp2-21" value="" style="rounded=0;whiteSpace=wrap;html=1;fillColor=#a20025;fontColor=#ffffff;strokeColor=#6F0000;" parent="1" vertex="1">
          <mxGeometry x="570" y="425" width="50" height="50" as="geometry" />
        </mxCell>
        <mxCell id="AOtf8fqtg7djKopkWsp2-22" value="" style="rounded=0;whiteSpace=wrap;html=1;fillColor=#a20025;fontColor=#ffffff;strokeColor=#6F0000;" parent="1" vertex="1">
          <mxGeometry x="170" y="425" width="50" height="50" as="geometry" />
        </mxCell>
        <mxCell id="AOtf8fqtg7djKopkWsp2-23" value="" style="rounded=0;whiteSpace=wrap;html=1;fillColor=#a20025;fontColor=#ffffff;strokeColor=#6F0000;" parent="1" vertex="1">
          <mxGeometry x="310" y="225" width="50" height="50" as="geometry" />
        </mxCell>
        <mxCell id="AOtf8fqtg7djKopkWsp2-24" value="" style="rounded=0;whiteSpace=wrap;html=1;fillColor=light-dark(#E9F9FF, #ffffff);strokeColor=#000000;" parent="1" vertex="1">
          <mxGeometry x="119" y="20" width="542" height="40" as="geometry" />
        </mxCell>
        <mxCell id="AOtf8fqtg7djKopkWsp2-25" value="" style="rounded=0;whiteSpace=wrap;html=1;fillColor=#FFFFFF;strokeColor=#000000;" parent="1" vertex="1">
          <mxGeometry x="621" y="20" width="40" height="40" as="geometry" />
        </mxCell>
        <mxCell id="AOtf8fqtg7djKopkWsp2-26" value="" style="endArrow=none;html=1;rounded=0;entryX=1;entryY=0;entryDx=0;entryDy=0;exitX=0.93;exitY=0.95;exitDx=0;exitDy=0;exitPerimeter=0;strokeColor=#FF0000;startSize=12;" parent="1" source="AOtf8fqtg7djKopkWsp2-24" target="AOtf8fqtg7djKopkWsp2-25" edge="1">
          <mxGeometry width="50" height="50" relative="1" as="geometry">
            <mxPoint x="350" y="380" as="sourcePoint" />
            <mxPoint x="400" y="330" as="targetPoint" />
          </mxGeometry>
        </mxCell>
        <mxCell id="AOtf8fqtg7djKopkWsp2-27" value="" style="endArrow=none;html=1;rounded=0;entryX=0.928;entryY=0.05;entryDx=0;entryDy=0;exitX=1;exitY=0;exitDx=0;exitDy=0;strokeColor=#FF0000;startSize=12;entryPerimeter=0;" parent="1" source="AOtf8fqtg7djKopkWsp2-1" target="AOtf8fqtg7djKopkWsp2-24" edge="1">
          <mxGeometry width="50" height="50" relative="1" as="geometry">
            <mxPoint x="770" y="118" as="sourcePoint" />
            <mxPoint x="808" y="80" as="targetPoint" />
          </mxGeometry>
        </mxCell>
        <mxCell id="AOtf8fqtg7djKopkWsp2-28" value="Crossy road" style="text;strokeColor=none;fillColor=none;html=1;fontSize=24;fontStyle=1;verticalAlign=middle;align=center;fontColor=#000000;" parent="1" vertex="1">
          <mxGeometry x="120" y="20" width="160" height="40" as="geometry" />
        </mxCell>
        <mxCell id="nXLbAc-sUl1r6uIZyQKK-1" value="" style="rounded=0;whiteSpace=wrap;html=1;strokeColor=#000000;" vertex="1" parent="1">
          <mxGeometry x="120" y="540" width="540" height="60" as="geometry" />
        </mxCell>
        <mxCell id="nXLbAc-sUl1r6uIZyQKK-2" value="" style="rounded=0;whiteSpace=wrap;html=1;fillColor=#a20025;fontColor=#ffffff;strokeColor=#6F0000;" vertex="1" parent="1">
          <mxGeometry x="190" y="545" width="50" height="50" as="geometry" />
        </mxCell>
        <mxCell id="nXLbAc-sUl1r6uIZyQKK-3" value="" style="rounded=0;whiteSpace=wrap;html=1;fillColor=#a20025;fontColor=#ffffff;strokeColor=#6F0000;" vertex="1" parent="1">
          <mxGeometry x="560" y="545" width="50" height="50" as="geometry" />
        </mxCell>
        <mxCell id="nXLbAc-sUl1r6uIZyQKK-5" value="Score : 70" style="text;strokeColor=none;fillColor=none;align=left;verticalAlign=middle;spacingLeft=4;spacingRight=4;overflow=hidden;points=[[0,0.5],[1,0.5]];portConstraint=eastwest;rotatable=0;whiteSpace=wrap;html=1;fontSize=23;textShadow=1;" vertex="1" parent="1">
          <mxGeometry x="135" y="70" width="120" height="30" as="geometry" />
        </mxCell>
      </root>
    </mxGraphModel>
  </diagram>
</mxfile>
